<svg width="21" height="21" viewBox="0 0 21 21" fill="none" xmlns="http://www.w3.org/2000/svg">
  <path d="M10.5 0C4.70156 0 0 4.70156 0 10.5C0 15.1488 3.25594 19.0634 7.76172 20.2461C8.26172 20.332 8.43359 20.0215 8.43359 19.7461V17.6953C5.80859 18.3164 5.10938 16.5312 5.10938 16.5312C4.65234 15.3594 4.01172 15.0625 4.01172 15.0625C3.13672 14.4922 4.12109 14.5039 4.12109 14.5039C5.12109 14.5703 5.64453 15.5586 5.64453 15.5586C6.53906 17.042 8.10938 16.6016 8.6875 16.3594C8.77734 15.75 9.01562 15.3711 9.27344 15.1484C6.75781 14.9219 4.14062 14.0391 4.14062 9.99609C4.14062 8.86719 4.50391 7.97656 5.16406 7.28906C5.05859 7.06641 4.76172 6.11328 5.22266 4.60938C5.22266 4.60938 6.05078 4.37109 8.43359 5.75C9.25391 5.51562 10.1523 5.39453 11.0391 5.39453C11.9258 5.39453 12.8242 5.51562 13.6445 5.75C16.0273 4.37109 16.8555 4.60938 16.8555 4.60938C17.3164 6.11328 17.0195 7.06641 16.9141 7.28906C17.5742 7.97656 17.9375 8.86719 17.9375 9.99609C17.9375 14.0508 15.3164 14.917 12.792 15.1367C13.1602 15.4141 13.4609 16 13.4609 17.0039V19.7461C13.4609 20.0195 13.6328 20.332 14.1367 20.2461C18.6484 19.0625 21.9062 15.1484 21.9062 10.5C21.9062 4.70156 17.2031 0 10.5 0Z" fill="white"/>
</svg>
