<svg width="21" height="21" viewBox="0 0 24 24" fill="none" xmlns="http://www.w3.org/2000/svg">
  <path d="M22.23 0H1.77C0.79 0 0 0.8 0 1.78V22.2C0 23.2 0.79 24 1.77 24H22.2C23.2 24 24 23.2 24 22.22V1.77C24 0.79 23.2 0 22.23 0ZM7.06 20.45H3.54V8.98H7.06V20.45ZM5.3 7.34C4.07 7.34 3.08 6.33 3.08 5.11C3.08 3.89 4.07 2.88 5.3 2.88C6.54 2.88 7.52 3.89 7.52 5.11C7.52 6.33 6.54 7.34 5.3 7.34ZM20.44 20.45H16.92V14.85C16.92 13.4 16.9 11.55 14.99 11.55C13.07 11.55 12.8 13.1 12.8 14.76V20.45H9.27V8.98H12.6V10.46H12.64C13.08 9.62 14.09 8.83 15.52 8.83C19 8.83 20.45 11.1 20.45 14.23V20.45H20.44Z" fill="#0077B5"/>
</svg>
